<svg width="63" height="63" viewBox="0 0 63 63" fill="none" xmlns="http://www.w3.org/2000/svg">
<rect width="63" height="63" rx="8" fill="url(#paint0_linear_2008_2898)" fill-opacity="0.7"/>
<path d="M28.875 44.625H36.75V49.875C36.75 50.5712 37.0266 51.2389 37.5188 51.7312C38.0111 52.2234 38.6788 52.5 39.375 52.5H44.625C45.3212 52.5 45.9889 52.2234 46.4812 51.7312C46.9734 51.2389 47.25 50.5712 47.25 49.875V42C48.4728 41.5929 49.5839 40.9065 50.4952 39.9952C51.4065 39.0839 52.0929 37.9728 52.5 36.75H55.125C55.8212 36.75 56.4889 36.4734 56.9812 35.9812C57.4734 35.4889 57.75 34.8212 57.75 34.125V28.875C57.75 28.1788 57.4734 27.5111 56.9812 27.0188C56.4889 26.5266 55.8212 26.25 55.125 26.25H52.5C52.5 24.2124 52.0256 22.2028 51.1144 20.3803C50.2031 18.5578 48.8801 16.9726 47.25 15.75V7.875C45.6199 7.875 44.0122 8.25452 42.5543 8.98351C41.0963 9.71251 39.828 10.7709 38.85 12.075L38.0625 13.125H28.875C24.6978 13.125 20.6918 14.7844 17.7381 17.7381C14.7844 20.6918 13.125 24.6978 13.125 28.875V31.5C13.125 33.5376 13.5994 35.5472 14.5106 37.3697C15.4219 39.1922 16.7449 40.7774 18.375 42V49.875C18.375 50.5712 18.6516 51.2389 19.1438 51.7312C19.6361 52.2234 20.3038 52.5 21 52.5H26.25C26.9462 52.5 27.6139 52.2234 28.1062 51.7312C28.5984 51.2389 28.875 50.5712 28.875 49.875V44.625Z" stroke="black" stroke-width="3" stroke-linecap="round" stroke-linejoin="round"/>
<path d="M42 26.25H42.0262" stroke="black" stroke-width="3" stroke-linecap="round" stroke-linejoin="round"/>
<path d="M5.25 21V23.625C5.25 25.0174 5.80312 26.3527 6.78769 27.3373C7.77226 28.3219 9.10761 28.875 10.5 28.875H13.125" stroke="black" stroke-width="3" stroke-linecap="round" stroke-linejoin="round"/>
<defs>
<linearGradient id="paint0_linear_2008_2898" x1="31.5" y1="0" x2="31.5" y2="63" gradientUnits="userSpaceOnUse">
<stop stop-color="#BFDEFF" stop-opacity="0.7"/>
<stop offset="1" stop-color="#B9FBD2" stop-opacity="0.7"/>
</linearGradient>
</defs>
</svg>
