<svg width="24" height="24" viewBox="0 0 24 24" fill="none" xmlns="http://www.w3.org/2000/svg">
<path d="M13.144 21.144C14.114 20.174 14.9414 19.0805 15.5791 17.9258C16.2168 16.7711 16.6521 15.5779 16.8604 14.4144C17.0686 13.2508 17.0456 12.1397 16.7927 11.1444C16.5398 10.1491 16.062 9.2891 15.3864 8.61358C14.7109 7.93806 13.851 7.46021 12.8557 7.20732C11.8604 6.95442 10.7492 6.93144 9.58564 7.13967C8.42208 7.3479 7.2289 7.78327 6.07423 8.42093C4.91955 9.05858 3.82599 9.88604 2.85599 10.856" stroke="#155DFC" stroke-width="1.5" stroke-linecap="round" stroke-linejoin="round"/>
<path d="M13.144 21.144C13.9627 20.3253 14.2059 18.9982 13.8201 17.4546C13.4343 15.911 12.4511 14.2774 11.0868 12.9131C9.72256 11.5489 8.08894 10.5657 6.54536 10.1799C5.00178 9.79411 3.67468 10.0373 2.856 10.856C2.03733 11.6747 1.79414 13.0018 2.17993 14.5453C2.56573 16.0889 3.54891 17.7225 4.91318 19.0868C6.27745 20.4511 7.91107 21.4343 9.45465 21.82C10.9982 22.2058 12.3253 21.9627 13.144 21.144Z" stroke="#155DFC" stroke-width="1.5" stroke-linecap="round" stroke-linejoin="round"/>
<path d="M16.565 10.4351L18.6 8.40006C18.9177 8.57609 19.2699 8.68081 19.6322 8.70695C19.9944 8.73309 20.358 8.68001 20.6977 8.55141C21.0373 8.42282 21.3449 8.22179 21.599 7.96229C21.8532 7.7028 22.0477 7.39108 22.1692 7.04879C22.2906 6.70651 22.3361 6.34188 22.3024 5.98025C22.2686 5.61862 22.1566 5.26868 21.9739 4.95475C21.7913 4.64082 21.5425 4.37043 21.2447 4.16239C20.947 3.95435 20.6076 3.81365 20.25 3.75006C20.18 3.39792 20.035 3.06498 19.8248 2.77391C19.6146 2.48284 19.3441 2.24046 19.0319 2.06326C18.7196 1.88605 18.3729 1.77819 18.0152 1.747C17.6575 1.71581 17.2973 1.76203 16.9591 1.88251C16.6209 2.00299 16.3126 2.19491 16.0552 2.4452C15.7978 2.6955 15.5973 2.9983 15.4674 3.33301C15.3375 3.66773 15.2812 4.02649 15.3023 4.3849C15.3235 4.74331 15.4216 5.09296 15.59 5.41006L13.566 7.43506" stroke="#155DFC" stroke-width="1.5" stroke-linecap="round" stroke-linejoin="round"/>
<path d="M8.5 16.5L7.5 15.5" stroke="#525252" stroke-width="1.5" stroke-linecap="round" stroke-linejoin="round"/>
</svg>
