<svg width="24" height="24" viewBox="0 0 24 24" fill="none" xmlns="http://www.w3.org/2000/svg">
<path d="M11 17H14V19C14 19.2652 14.1054 19.5196 14.2929 19.7071C14.4804 19.8946 14.7348 20 15 20H17C17.2652 20 17.5196 19.8946 17.7071 19.7071C17.8946 19.5196 18 19.2652 18 19V16C18.4658 15.8449 18.8891 15.5834 19.2363 15.2363C19.5834 14.8891 19.8449 14.4658 20 14H21C21.2652 14 21.5196 13.8946 21.7071 13.7071C21.8946 13.5196 22 13.2652 22 13V11C22 10.7348 21.8946 10.4804 21.7071 10.2929C21.5196 10.1054 21.2652 10 21 10H20C20 9.22377 19.8193 8.45821 19.4721 7.76393C19.125 7.06966 18.621 6.46574 18 6V3C17.379 3 16.7666 3.14458 16.2111 3.42229C15.6557 3.7 15.1726 4.10322 14.8 4.6L14.5 5H11C9.4087 5 7.88258 5.63214 6.75736 6.75736C5.63214 7.88258 5 9.4087 5 11V12C5 12.7762 5.18073 13.5418 5.52786 14.2361C5.875 14.9303 6.37902 15.5343 7 16V19C7 19.2652 7.10536 19.5196 7.29289 19.7071C7.48043 19.8946 7.73478 20 8 20H10C10.2652 20 10.5196 19.8946 10.7071 19.7071C10.8946 19.5196 11 19.2652 11 19V17Z" stroke="#155DFC" stroke-width="1.5" stroke-linecap="round" stroke-linejoin="round"/>
<path d="M16 10H16.01" stroke="#155DFC" stroke-width="1.5" stroke-linecap="round" stroke-linejoin="round"/>
<path d="M2 8V9C2 9.53043 2.21071 10.0391 2.58579 10.4142C2.96086 10.7893 3.46957 11 4 11H5" stroke="#155DFC" stroke-width="1.5" stroke-linecap="round" stroke-linejoin="round"/>
</svg>
