<svg width="72" height="72" viewBox="0 0 72 72" fill="none" xmlns="http://www.w3.org/2000/svg">
<rect width="72" height="72" rx="25" fill="#BFDEFF" fill-opacity="0.7"/>
<path d="M36 54H12C10.4087 54 8.88258 53.3679 7.75736 52.2426C6.63214 51.1174 6 49.5913 6 48V24C6 22.4087 6.63214 20.8826 7.75736 19.7574C8.88258 18.6321 10.4087 18 12 18H60C61.5913 18 63.1174 18.6321 64.2426 19.7574C65.3679 20.8826 66 22.4087 66 24V39" stroke="#155DFC" stroke-width="3" stroke-linecap="round" stroke-linejoin="round"/>
<path d="M48 57L57 66L66 57" stroke="#155DFC" stroke-width="3" stroke-linecap="round" stroke-linejoin="round"/>
<path d="M54 36H54.03" stroke="#155DFC" stroke-width="3" stroke-linecap="round" stroke-linejoin="round"/>
<path d="M57 48V66" stroke="#155DFC" stroke-width="3" stroke-linecap="round" stroke-linejoin="round"/>
<path d="M18 36H18.03" stroke="#155DFC" stroke-width="3" stroke-linecap="round" stroke-linejoin="round"/>
<path d="M36 42C39.3137 42 42 39.3137 42 36C42 32.6863 39.3137 30 36 30C32.6863 30 30 32.6863 30 36C30 39.3137 32.6863 42 36 42Z" stroke="#155DFC" stroke-width="3" stroke-linecap="round" stroke-linejoin="round"/>
</svg>
