<svg width="72" height="72" viewBox="0 0 72 72" fill="none" xmlns="http://www.w3.org/2000/svg">
<rect width="72" height="72" rx="25" fill="#BFDEFF" fill-opacity="0.7"/>
<path d="M33 51H42V57C42 57.7956 42.3161 58.5587 42.8787 59.1213C43.4413 59.6839 44.2044 60 45 60H51C51.7956 60 52.5587 59.6839 53.1213 59.1213C53.6839 58.5587 54 57.7956 54 57V48C55.3975 47.5347 56.6673 46.7503 57.7088 45.7088C58.7503 44.6673 59.5347 43.3975 60 42H63C63.7956 42 64.5587 41.6839 65.1213 41.1213C65.6839 40.5587 66 39.7956 66 39V33C66 32.2044 65.6839 31.4413 65.1213 30.8787C64.5587 30.3161 63.7956 30 63 30H60C60 27.6713 59.4578 25.3746 58.4164 23.2918C57.375 21.209 55.8629 19.3972 54 18V9C52.1371 9 50.2997 9.43374 48.6334 10.2669C46.9672 11.1 45.5178 12.3096 44.4 13.8L43.5 15H33C28.2261 15 23.6477 16.8964 20.2721 20.2721C16.8964 23.6477 15 28.2261 15 33V36C15 38.3287 15.5422 40.6254 16.5836 42.7082C17.625 44.791 19.1371 46.6028 21 48V57C21 57.7956 21.3161 58.5587 21.8787 59.1213C22.4413 59.6839 23.2044 60 24 60H30C30.7956 60 31.5587 59.6839 32.1213 59.1213C32.6839 58.5587 33 57.7956 33 57V51Z" stroke="#155DFC" stroke-width="3" stroke-linecap="round" stroke-linejoin="round"/>
<path d="M48 30H48.03" stroke="#155DFC" stroke-width="3" stroke-linecap="round" stroke-linejoin="round"/>
<path d="M6 24V27C6 28.5913 6.63214 30.1174 7.75736 31.2426C8.88258 32.3679 10.4087 33 12 33H15" stroke="#155DFC" stroke-width="3" stroke-linecap="round" stroke-linejoin="round"/>
</svg>
